<svg xmlns="http://www.w3.org/2000/svg" viewBox="0 0 180 113.4">
  <style type="text/css">.cls-0 {fill:#070E18;} .cls-1 {fill:url(#SVGID_1_);} .cls-2 {fill:url(#SVGID_2_);} .cls-3 {fill:url(#SVGID_3_);} .cls-4 {fill:url(#SVGID_4_);} .cls-5 {fill:url(#SVGID_5_);}</style>
  <linearGradient id="SVGID_1_" x1="12.93" x2="168.3" y1="39.66" y2="89.21" gradientUnits="userSpaceOnUse">
    <stop stop-color="#58EED5" offset="0"/>
    <stop stop-color="#41BCB0" offset="1"/>
  </linearGradient>
  <path class="cls-1" d="m134.7 24c-8.7 0-16.1 2.4-24.1 7-5.1 3.1-10.6 6.9-17.3 15.3l-3.5 4.8c-5.5 8.1-11.2 19.8-16.5 26.9-7.2 9.2-15.2 17.3-28.3 17.3-15 0.2-27.8-11.3-27.8-28.5 0-13.9 11.8-28 28.1-28 10.5-0.1 19.3 4.4 28.8 15.1l2.8 3.5 12.8 22c10.2 15 21.8 29.8 44.9 29.7 24.5 0 42-19.2 42-42.3 0-19.1-16.3-42.8-41.9-42.8zm-0.4 71.3c-14.9-0.7-23.1-9-31.3-20.9l-13.2-22.5-6.1-8c-9.4-10.5-20-19.9-38.1-19.9-22.8 0-41.5 19.1-41.5 42.6 0.2 19 14.3 42.5 41.6 42.5 17.3 0 30.8-9.1 39.6-20.8l4.4-6.3 10-17.1c4.6-8 14.7-24.4 33.2-26 16.9-1.3 30.3 11.7 30.3 27.1 0 16.4-12.1 29.3-28.9 29.3z"/>
  <linearGradient id="SVGID_2_" x1="89.41" x2="89.41" y1="6.168" y2="78.47" gradientUnits="userSpaceOnUse">
    <stop stop-color="#277D7C" offset="0"/>
    <stop stop-color="#162B31" offset="1"/>
  </linearGradient>
  <path class="cls-2" d="m69 30.9c4.6-10.3 8.7-26.8 20.4-26.8 11.2 0 16.1 14 21.1 26.7l4.7 13c-4 2.7-5.8 4.4-9.1 7.5l-4.5-11c-2.8-5.9-6.1-10.7-11.6-10.7-5.7 0-9.2 5.8-11.9 10.5l-4.1-3.5-5-5.7z"/>
  <linearGradient id="SVGID_3_" x1="23.08" x2="78.01" y1="52.33" y2="52.33" gradientUnits="userSpaceOnUse">
    <stop stop-color="#162B31" offset="0"/>
    <stop stop-color="#274A4C" offset="1"/>
  </linearGradient>
  <path class="cls-3" d="m74 36.6-3.2 7.6c-3.8 8.5-9.2 25.7-18.2 26.4-6.2 0.6-9.2-3.9-16.4-4.7 11.6-0.9 19.6-6 26.7-19.9l2.3-5 8.8-4.4z"/>
  <linearGradient id="SVGID_4_" x1="23.08" x2="89.69" y1="56.63" y2="56.63" gradientUnits="userSpaceOnUse">
    <stop stop-color="#162B31" offset="0"/>
    <stop stop-color="#277D7C" offset="1"/>
  </linearGradient>
  <path class="cls-4" d="m76.2 36.2-5.3 13c-4.8 11.2-9.5 23.2-18.3 22.4-4.8-0.2-7.4-2.5-11-3.7-3.8-1.3-7.6-2.3-18.5-2.3 8.1 0 14.3 0.5 19.3 5 4.5 3.8 7.4 8 13.4 8 7.9 0 13.6-8.2 19.1-22.6l3.1-8.4-1.8-11.4z"/>
  <linearGradient id="SVGID_5_" x1="102.9" x2="163.1" y1="55.61" y2="55.61" gradientUnits="userSpaceOnUse">
    <stop stop-color="#277D7C" offset="0"/>
    <stop stop-color="#41BCB0" offset="1"/>
  </linearGradient>
  <path class="cls-5" d="m102.9 36.6c4.1 10.3 10.5 38.3 23.6 38.3 7.9 0 12.1-9 26.4-9.3-11.1-0.1-15.3 0.8-20-1.1-8-2.6-13.5-10.6-17.7-20.9l-4.7-12.5-7.6 5.5z"/>
  <linearGradient id="SVGID_6_" x1="111.4" x2="163" y1="64.92" y2="64.92" gradientUnits="userSpaceOnUse">
    <stop stop-color="#277D7C" offset="0"/>
    <stop stop-color="#41BCB0" offset="1"/>
  </linearGradient>
  <path d="m111.4 57.6c3.7 3.8 7.2 5 11.6 4.5 7.4-0.7 6.4-10.1 11.1-10.1 8.5-0.9 7.8 13.6 25.7 13.6l-6.9 0.3c-7.8 0.2-12.5 6.2-14.9 8.7-4.1 4.5-7.4 8.5-12.9 8.5-8.6 0-14.1-9.5-18-17.7l-3.7-8.9 5.1-5.9 2.9 7z" fill="url(#SVGID_6_)"/>
  <linearGradient id="SVGID_7_" x1="37.5" x2="108.1" y1="37.51" y2="37.51" gradientUnits="userSpaceOnUse">
    <stop stop-color="#277D7C" offset="0"/>
    <stop stop-color="#35B6AA" offset="1"/>
  </linearGradient>
  <path d="m76 36.4 3.4-6.3c1.7-2.7 4.7-8.6 10.6-8.6 5.4 0 9.4 6 11.4 10l2 4.9-6.8 6.6c-2-2.5-4-5.4-7.7-5.4-2.9 0-4.8 2.3-6.5 4.9l-6.4-6.1z" fill="url(#SVGID_7_)" opacity=".8"/>
  <linearGradient id="SVGID_8_" x1="37.5" x2="106.9" y1="39.86" y2="39.86" gradientUnits="userSpaceOnUse">
    <stop stop-color="#277D7C" offset="0"/>
    <stop stop-color="#41BCB0" offset="1"/>
  </linearGradient>
  <path d="m78 38.1c2.8-3.7 6.1-8.5 11.4-8.5 5.5 0 8.2 4.8 10.7 9.3l6.8-4.9c-2.9-7.1-8-21.1-17.5-21.1-9 0-13.4 12.1-17 20.2l5.6 5z" fill="url(#SVGID_8_)" opacity=".6"/>
  <linearGradient id="SVGID_9_" x1="37.5" x2="109.2" y1="39.75" y2="39.75" gradientUnits="userSpaceOnUse">
    <stop stop-color="#277D7C" offset="0"/>
    <stop stop-color="#41BCB0" offset="1"/>
  </linearGradient>
  <path d="m72.4 33.1c3.1-6.5 7.7-20.3 17-20.3 8.5 0 14 10 17.5 19.1l2.3 5.5" fill="none" opacity=".4" stroke="url(#SVGID_9_)" stroke-miterlimit="10" stroke-width=".5"/>
  <linearGradient id="SVGID_10_" x1="37.5" x2="66.79" y1="54.95" y2="54.95" gradientUnits="userSpaceOnUse">
    <stop stop-color="#277D7C" offset="0"/>
    <stop stop-color="#274A4C" offset="1"/>
  </linearGradient>
  <path d="m37.5 65.6c12.3 0 22-1.2 29-19" fill="none" opacity=".4" stroke="url(#SVGID_10_)" stroke-miterlimit="10" stroke-width=".5"/>
  <linearGradient id="SVGID_11_" x1="37.45" x2="71.45" y1="58.18" y2="58.18" gradientUnits="userSpaceOnUse">
    <stop stop-color="#277D7C" offset="0"/>
    <stop stop-color="#274A4C" offset="1"/>
  </linearGradient>
  <path d="m37.4 66.5c6.3 1.6 9.6 4.9 15.2 4.6 8.5 0 13.4-8.6 18.8-20.5" fill="none" opacity=".4" stroke="url(#SVGID_11_)" stroke-miterlimit="10" stroke-width=".5"/>
  <linearGradient id="SVGID_12_" x1="112" x2="121.2" y1="48" y2="48" gradientUnits="userSpaceOnUse">
    <stop stop-color="#277D7C" offset="0"/>
    <stop stop-color="#274A4C" offset="1"/>
  </linearGradient>
  <path d="m112.1 46.6c2.5 5.8 6.8 12.3 9.1 13" fill="none" opacity=".4" stroke="url(#SVGID_12_)" stroke-miterlimit="10" stroke-width=".5"/>
  <linearGradient id="SVGID_13_" x1="111.4" x2="152.9" y1="64.97" y2="64.97" gradientUnits="userSpaceOnUse">
    <stop stop-color="#277D7C" offset="0"/>
    <stop stop-color="#41BCB0" offset="1"/>
  </linearGradient>
  <path d="m111.4 57.6c4.6 6.4 10.2 8.3 21.5 8h20" fill="none" opacity=".4" stroke="url(#SVGID_13_)" stroke-miterlimit="10" stroke-width=".5"/>
  <linearGradient id="SVGID_14_" x1="116.6" x2="152.9" y1="63.14" y2="63.14" gradientUnits="userSpaceOnUse">
    <stop stop-color="#41BCB0" offset="0"/>
    <stop stop-color="#277D7C" offset="1"/>
  </linearGradient>
  <path d="m116.6 62.1c9 0 11.2 1.8 15.8-1.5 2.5-1.7 3.6-3.1 7.6-0.7 3.5 2 5.2 4.7 12.9 5.7" fill="none" opacity=".4" stroke="url(#SVGID_14_)" stroke-miterlimit="10" stroke-width=".5"/>
  <linearGradient id="SVGID_15_" x1="118.9" x2="147.3" y1="70.52" y2="70.52" gradientUnits="userSpaceOnUse">
    <stop stop-color="#41BCB0" offset="0"/>
    <stop stop-color="#41BCB0" offset="1"/>
  </linearGradient>
  <path d="m118.9 62.5c6.2 3.1 11.7 4 16 2.1 5.2-2.1 8.6 2 12.3 1.3" fill="none" opacity=".4" stroke="url(#SVGID_15_)" stroke-miterlimit="10" stroke-width=".5"/>
</svg>
