<svg xmlns="http://www.w3.org/2000/svg" viewBox="0 0 160 99">
  <style type="text/css">.cls-0 {fill:#010919;} .cls-1 {fill:url(#SVGID_1_);}</style>
  <linearGradient id="SVGID_1_" x1="80.04" x2="80.04" y1="95.9" y2="3.393" gradientUnits="userSpaceOnUse">
    <stop stop-color="#19BACB" offset="0"/>
    <stop stop-color="#42E0EC" offset="1"/>
  </linearGradient>
  <path class="cls-1" d="m83.4 14.1c3.1 2.9 5.7 6.3 8.1 10.3h65.5v-10.3h-73.6zm8.8 22.2c-5-15.3-19.6-32.8-43.2-32.9-25.5-0.4-45.6 20.5-45.5 46.2 0.1 22.3 16.7 46.2 44.6 46.4 24-0.1 36.6-14.5 41.8-28.3h49.9v-10.1h-46.2c0.7-3.9 0.6-7.6 0.4-11.2h55.5v-10.1h-57.3zm-44.3 47.4c-18.5-0.2-33.4-15.2-33.4-34.2 0-16 13.8-34.1 33.6-34.1 19.3-0.1 31.7 15.6 33.6 28.8 2.2 15.3-6.8 39.3-33.8 39.5zm40.2-4.7c-2.7 3.7-5.7 7.3-10 10.7h50.7v-10.8l-40.7 0.1z"/>
</svg>
