<svg xmlns="http://www.w3.org/2000/svg" viewBox="0 0 100 101">
  <style type="text/css">.cls-0 {fill:#344453;} .cls-1 {fill:url(#SVGID_1_);} .cls-2 {fill:none;stroke:#A6B0B6;stroke-width:0.6348;stroke-miterlimit:10;} .cls-3 {fill:url(#SVGID_2_);} .cls-4 {fill:#29E2E1;}</style>
  <linearGradient id="SVGID_1_" x1="50" x2="50" y1="99.46" y2="1.876" gradientUnits="userSpaceOnUse">
    <stop stop-color="#68737A" offset="0"/>
    <stop stop-color="#A6B0B6" offset="1"/>
  </linearGradient>
  <path class="cls-1" d="m50 1.9c-26.6 0-48.3 22-48.5 48.2 0 26.2 21.9 49.4 48.2 49.3 27.3 0.1 48.8-21.9 48.8-48.7 0-25.6-21.3-48.8-48.5-48.8zm-0.3 92.1c-23.3 0-42.9-19.8-42.9-43.6 0-23.3 20-43.4 43.2-43.3 23.5-0.2 43.4 19.7 43.2 43.3 0.1 23.5-18.9 43.6-43.5 43.6z"/>
  <path class="cls-2" d="m50 2.1c-26.4 0-48.2 21.9-48.3 47.9-0.1 26.1 21.7 49.1 48 49.1 27.2 0 48.7-21.8 48.7-48.4 0-25.5-21.3-48.6-48.4-48.6z"/>
  <linearGradient id="SVGID_2_" x1="40.86" x2="58.71" y1="26.39" y2="73.53" gradientUnits="userSpaceOnUse">
    <stop stop-color="#29E2E1" stop-opacity="0" offset=".2043"/>
    <stop stop-color="#29E2E1" stop-opacity=".3383" offset=".8786"/>
  </linearGradient>
  <path class="cls-3" d="m93.2 48.6c-9.2-0.1-14.2-1.1-18.9 0.7-7.5 2.7-10.7 11.6-13.4 13.9-6.5 5.5-9.1-18.2-14.2-25.6-1.4-2-2.7-4.2-5.7-4.1-4.7 0.1-6.3 5.8-10.5 10.9-3.9 4.8-7.6 5.5-15.5 5.1l-8.3-0.4 0.1 3.2 7.8 0.3c9.6 0.5 14-0.5 18.1-5 3.6-4 5.9-10.7 8.6-10.7 5.3-0.1 8.2 19.7 12.5 26.1 1.3 2 2.8 3.9 5.6 3.9 6.5-0.1 6.9-8.2 12.9-12.8 3.8-2.9 7-2.6 11.9-2.6l9 0.3v-3.2z"/>
  <path class="cls-4" d="m93.2 48.6c-9.2-0.1-14.2-1.1-18.9 0.7-7.5 2.7-10.7 11.6-13.4 13.9-6.5 5.5-8.1-18.2-13.2-24.6-1.4-2-2.7-5.2-6.7-5.1-4.7 0.1-6.3 5.8-10.1 10.5-3.8 4.8-7 5.9-15.5 5.5l-8.5-0.4v3.2l7.7 0.3c10 0.5 14-0.5 18.1-5 3.6-4 5.9-10.7 8.6-10.7 5.3-0.1 8.2 19.7 12.1 25.5 1.3 2.3 3 4.5 5.8 4.5 5.7 0 6.6-6.1 10.7-10.7 3.9-4.6 7.2-4.7 10.9-4.8 3.4 0 8.3 0.3 12.3 0.4l0.1-3.2z"/>
</svg>
