<svg xmlns="http://www.w3.org/2000/svg" viewBox="0 0 120 90">
  <style type="text/css">.cls-0 {fill:#010B19;} .cls-1 {fill:url(#SVGID_1_);} .cls-2 {fill:url(#SVGID_2_);} .cls-3 {fill:url(#SVGID_3_);}</style>
  <linearGradient id="SVGID_1_" x1="76.26" x2="96.36" y1="33.62" y2="33.62" gradientUnits="userSpaceOnUse">
    <stop stop-color="#3CDFCD" offset="0"/>
    <stop stop-color="#2CB9C7" offset="1"/>
  </linearGradient>
  <path class="cls-1" d="m84.1 23.5c-2.1-0.3-4.1 0.6-5.5 2.9l-2.3 5.6 4.7 12 2.6-9 2.7-10-2.2-1.5z"/>
  <linearGradient id="SVGID_2_" x1="74.07" x2="85.72" y1="45.61" y2="77.41" gradientUnits="userSpaceOnUse">
    <stop stop-color="#178ED5" offset="0"/>
    <stop stop-color="#3CD3C9" offset="1"/>
  </linearGradient>
  <path class="cls-2" d="m74.3 44.7-8.8 31.3 3.7 10 9-28.1-3.9-13.2z"/>
  <linearGradient id="SVGID_3_" x1="40.83" x2="109.1" y1="59.8" y2="16.96" gradientUnits="userSpaceOnUse">
    <stop stop-color="#1FA8CA" offset=".2182"/>
    <stop stop-color="#3CDFCD" offset=".4424"/>
    <stop stop-color="#3CDFCD" offset=".7056"/>
    <stop stop-color="#3CDFCD" offset="1"/>
  </linearGradient>
  <path class="cls-3" d="m118.1 45-6.8-30c-0.3-2.1-1.9-3.9-4.1-4-1.8-0.1-3.5 0.8-4.1 2.5l-10.2 22.9 2.5 4.1 2.3 2.4 8.7-19.2 4.4 20.3h-8.9c-3.1 0-5-0.7-6.9-3.8l-8.3-14.2c-0.8-1.4-1.9-2.5-3.5-2.6-2.2-0.1-4.2 1.1-4.8 3.5l6 27.6h0.1l4.4 9.5 5.7-12.2 0.1-1.7c-1.5-0.6-3-1.7-4.7-4.5l-0.7-1.3-4.9 10.2-13.8-49.1c-1.1-3.3-4.7-4.2-7.2-2.2-0.5 0.4-1 1.1-1.3 1.8l-17 32.3 4.2 7.5 16.1-30.5 11.3 40.5 3.2 8.2c0.7 2.4 3 3.9 5.5 3.3 1.5-0.2 2.4-1.1 3-2.2l-3.9-9.6"/>
  <linearGradient id="SVGID_4_" x1="39.42" x2="45.11" y1="45.43" y2="58.22" gradientUnits="userSpaceOnUse">
    <stop stop-color="#178ED5" offset="0"/>
    <stop stop-color="#1FA8CA" offset="1"/>
  </linearGradient>
  <path d="m41.2 45.2-1.2 2.2 0.8 2v7.6l-1.6 3.8c2.9-2.5 4.8-5.6 5.8-8.5l-3.8-7.1z" fill="url(#SVGID_4_)"/>
  <linearGradient id="SVGID_5_" x1="8.394" x2="40.12" y1="60.24" y2="29.29" gradientUnits="userSpaceOnUse">
    <stop stop-color="#1FA8CA" offset="0"/>
    <stop stop-color="#3CDFCD" offset="1"/>
  </linearGradient>
  <path d="m44.2 34.8c-3.7-5.9-9.9-12-20.6-12-12.3 0-21.4 10.2-21.4 22.3 0 11.5 8.7 21.9 21.2 21.9 7.4 0 12.9-2.9 16.3-6.4 2.8-2.6 4.6-5.7 5.4-8.3l-3.9-7.3-3.9 6.5c-2.6 4.4-7 8.1-13.9 8.1-8.3 0-14.8-6.4-14.8-14.5 0-7.5 6.2-14.9 14.8-14.9 6.6 0 11.1 3.3 13.8 7.6l4 6.9 3.8 7.6 17.4 33.2c1.9 3.5 7.5 3.5 8.3-0.9l-5.3-8.7-21.2-41.1z" fill="url(#SVGID_5_)"/>
  <linearGradient id="SVGID_6_" x1="88.63" x2="86.29" y1="44.32" y2="59.26" gradientUnits="userSpaceOnUse">
    <stop stop-color="#178ED5" offset="0"/>
    <stop stop-color="#33C1CA" offset="1"/>
  </linearGradient>
  <path d="m89.3 44.3-4.9 10.2 0.9 11.8c1.5-0.1 2.5-0.9 3.1-2l6.2-14.2c-2-1-3.3-2.6-5.3-5.8z" fill="url(#SVGID_6_)"/>
  <linearGradient id="SVGID_7_" x1="89.64" x2="104.6" y1="24.91" y2="50.98" gradientUnits="userSpaceOnUse">
    <stop stop-color="#33C1CA" offset="0"/>
    <stop stop-color="#31C0CA" offset="1"/>
  </linearGradient>
  <path d="m94 37-7.3-11.2c-2.2-3.2-6.5-3.3-8.3 2 1.7 0.9 4.2 4.6 5.1 7l6.2 9.8c2.6 4.5 4.9 6.4 9.8 6.4h15c2.3 0 4.5-2.4 3.6-6h-7.3-8.9c-3 0-5.3-1.4-7.9-8z" fill="url(#SVGID_7_)"/>
</svg>
